Coordinates
version=1
nRows=74
nColumns=19
inDegrees=yes

Units are S.I. units (second, meters, Newtons, ...)
Angles are in degrees.

endheader
time	1_Force_X	1_Force_Y	1_Force_Z	1_Moment_X	1_Moment_Y	1_Moment_Z	1_COP_X	1_COP_Y	1_COP_Z	2_Force_X	2_Force_Y	2_Force_Z	2_Moment_X	2_Moment_Y	2_Moment_Z	2_COP_X	2_COP_Y	2_COP_Z
0.5650	34.504	-3.546	2.800	-1.038	0.257	-0.269	517.820	0.000	-257.038	-19.478	62.523	13.188	-8.133	3.551	6.337	115.995	0.000	119.918
0.5675	34.504	-3.892	3.067	-1.061	0.303	-0.374	499.030	0.000	-236.902	-19.611	62.695	13.364	-8.266	3.532	6.406	116.883	0.000	121.573
0.5700	34.947	-3.201	3.372	-1.039	0.266	-0.321	596.346	0.000	-276.807	-19.481	61.667	13.624	-8.178	3.597	6.302	117.034	0.000	121.982
0.5725	35.074	-4.075	3.019	-1.217	0.303	-0.444	500.081	0.000	-264.980	-19.484	61.670	14.060	-8.177	3.597	6.354	117.872	0.000	121.648
0.5750	35.168	-4.764	3.374	-1.172	0.321	-0.340	406.705	0.000	-213.820	-19.524	61.667	13.581	-8.244	3.607	6.284	116.784	0.000	123.087
0.5775	34.861	-4.760	3.685	-1.150	0.321	-0.392	415.230	0.000	-206.480	-19.263	61.840	13.801	-8.243	3.616	6.250	115.701	0.000	122.571
0.5800	35.216	-4.588	3.727	-1.127	0.294	-0.269	407.438	0.000	-208.843	-19.219	62.012	13.713	-8.110	3.616	6.284	115.909	0.000	120.152
0.5825	35.303	-5.108	3.993	-1.172	0.349	-0.410	394.302	0.000	-193.987	-19.263	62.356	13.801	-8.154	3.606	6.267	115.025	0.000	120.128
0.5850	35.127	-4.233	3.774	-0.949	0.368	-0.287	444.831	0.000	-183.769	-19.435	63.038	13.234	-8.222	3.514	6.406	116.124	0.000	120.303
0.5875	35.170	-4.055	3.908	-0.882	0.443	-0.305	469.273	0.000	-173.762	-19.435	62.866	13.233	-8.155	3.513	6.406	116.440	0.000	119.583
0.5900	35.086	-4.406	3.995	-0.993	0.359	-0.235	415.100	0.000	-184.323	-19.481	62.695	13.494	-8.156	3.514	6.372	116.233	0.000	119.722
0.5925	35.436	-4.408	4.082	-0.993	0.387	-0.305	434.379	0.000	-183.371	-19.698	63.037	13.406	-8.112	3.477	6.285	114.388	0.000	118.445
0.5950	35.350	-4.058	4.215	-0.971	0.387	-0.235	453.555	0.000	-192.104	-19.698	62.866	13.407	-8.245	3.486	6.320	115.252	0.000	120.877
0.5975	35.659	-5.972	4.216	-1.148	0.424	-0.305	322.527	0.000	-160.301	-19.350	62.184	13.801	-8.221	3.616	6.250	115.127	0.000	121.529
0.6000	35.613	-4.934	4.345	-1.259	0.405	-0.340	396.891	0.000	-215.340	-19.133	62.356	13.891	-8.287	3.607	6.302	115.486	0.000	122.186
0.6025	35.878	-5.452	4.214	-1.214	0.461	-0.235	342.178	0.000	-187.588	-19.350	62.011	13.845	-8.222	3.598	6.145	113.768	0.000	121.851
0.6050	35.749	-3.534	4.610	-0.991	0.462	-0.112	491.148	0.000	-221.246	-19.566	63.041	13.320	-8.176	3.578	6.423	116.483	0.000	119.511
0.6075	35.792	-4.225	4.393	-0.814	0.489	-0.148	419.759	0.000	-145.468	-19.566	62.695	13.232	-8.199	3.541	6.354	116.020	0.000	120.612
0.6100	35.789	-3.883	4.611	-1.058	0.499	-0.252	483.680	0.000	-218.627	-19.304	63.038	13.278	-8.155	3.513	6.389	115.752	0.000	119.219
0.6125	35.880	-4.398	4.658	-1.034	0.573	-0.113	396.291	0.000	-187.111	-19.480	63.728	13.541	-8.154	3.532	6.371	114.353	0.000	117.716
0.6150	36.055	-4.055	4.699	-1.057	0.545	-0.183	448.902	0.000	-208.114	-19.610	62.866	13.319	-8.156	3.495	6.337	115.464	0.000	119.530
0.6175	36.145	-5.271	5.010	-1.212	0.582	-0.236	356.329	0.000	-186.927	-19.349	62.528	13.758	-8.176	3.634	6.232	114.215	0.000	120.170
0.6200	36.583	-5.103	4.786	-1.212	0.582	-0.235	371.903	0.000	-195.064	-19.350	62.527	13.757	-8.110	3.597	6.215	113.942	0.000	119.126
0.6225	36.409	-4.393	5.101	-0.856	0.675	-0.183	418.273	0.000	-142.273	-19.568	62.696	13.539	-8.266	3.514	6.406	116.851	0.000	121.451
0.6250	36.456	-5.094	5.495	-1.167	0.620	-0.201	364.579	0.000	-180.266	-19.394	62.356	13.802	-8.242	3.625	6.249	114.841	0.000	121.540
0.6275	36.451	-5.094	5.320	-1.167	0.675	-0.306	385.231	0.000	-181.832	-19.307	62.182	13.757	-8.155	3.570	6.250	115.101	0.000	120.515
0.6300	36.762	-5.789	5.408	-1.189	0.694	-0.254	332.426	0.000	-163.074	-19.569	61.666	13.624	-8.223	3.561	6.302	117.104	0.000	122.715
0.6325	36.984	-5.619	5.406	-1.167	0.657	-0.218	338.007	0.000	-164.139	-19.133	62.700	13.978	-8.177	3.588	6.232	113.747	0.000	119.690
0.6350	37.114	-4.927	5.579	-1.410	0.713	-0.183	379.455	0.000	-234.820	-19.351	62.010	13.714	-8.310	3.570	6.337	116.854	0.000	123.376
0.6375	37.250	-6.314	5.759	-1.344	0.703	-0.201	300.007	0.000	-171.524	-19.262	62.011	13.671	-8.244	3.598	6.232	115.106	0.000	122.333
0.6400	36.984	-4.044	5.761	-0.943	0.769	-0.096	439.189	0.000	-168.650	-19.783	63.382	13.235	-8.332	3.532	6.319	114.376	0.000	121.384
0.6425	37.074	-4.738	5.938	-0.988	0.778	-0.114	379.502	0.000	-151.637	-19.697	63.039	13.363	-8.133	3.532	6.302	114.656	0.000	118.804
0.6450	37.248	-4.217	5.893	-0.965	0.815	-0.096	424.036	0.000	-165.431	-19.437	62.694	13.452	-8.245	3.486	6.389	116.484	0.000	121.175
0.6475	37.602	-5.270	5.801	-1.298	0.769	-0.061	335.745	0.000	-196.338	-19.349	62.528	13.714	-8.154	3.643	6.215	113.936	0.000	119.846
0.6500	37.736	-5.789	6.200	-1.276	0.796	-0.131	318.924	0.000	-171.865	-19.437	61.668	13.667	-8.133	3.607	6.232	115.873	0.000	121.231
0.6525	37.823	-5.438	6.112	-1.164	0.843	-0.096	333.763	0.000	-163.136	-19.175	62.699	13.716	-8.154	3.616	6.250	114.055	0.000	119.521
0.6550	38.086	-5.619	6.110	-1.232	0.806	-0.184	340.741	0.000	-169.958	-19.177	61.840	13.844	-8.155	3.597	6.302	116.480	0.000	121.113
0.6575	38.003	-5.787	6.508	-1.275	0.825	-0.061	309.011	0.000	-169.367	-19.307	62.012	13.889	-8.221	3.598	6.232	115.135	0.000	121.813
0.6600	37.872	-5.080	6.468	-1.007	0.918	0.096	319.821	0.000	-140.476	-19.654	62.351	13.363	-8.289	3.523	6.389	117.281	0.000	122.613
0.6625	38.049	-5.426	6.689	-1.007	0.946	0.061	307.406	0.000	-129.667	-19.436	63.210	13.409	-8.222	3.504	6.337	114.709	0.000	119.850
0.6650	38.181	-5.254	6.554	-1.095	0.955	0.166	298.537	0.000	-151.746	-19.391	62.865	13.191	-8.244	3.505	6.302	114.754	0.000	121.030
0.6675	38.444	-5.083	6.509	-1.006	0.946	0.131	317.825	0.000	-139.914	-19.655	62.868	13.583	-8.288	3.542	6.302	114.935	0.000	121.427
0.6700	38.664	-4.731	6.731	-0.983	1.049	0.184	332.521	0.000	-143.167	-19.699	62.522	13.406	-8.201	3.486	6.302	115.606	0.000	120.845
0.6725	38.971	-5.608	7.170	-1.251	1.048	-0.062	326.846	0.000	-165.009	-19.393	61.837	13.537	-8.157	3.542	6.250	115.811	0.000	121.372
0.6750	39.015	-6.125	6.996	-1.161	1.085	-0.027	293.925	0.000	-137.788	-19.480	62.698	13.671	-8.243	3.579	6.198	113.454	0.000	120.984
0.6775	39.281	-5.953	6.994	-1.160	1.085	0.095	283.842	0.000	-141.653	-19.089	62.012	13.801	-8.133	3.597	6.302	116.094	0.000	120.448
0.6800	39.106	-5.076	7.216	-1.048	1.132	0.201	310.504	0.000	-141.994	-19.610	63.382	13.321	-8.177	3.504	6.372	115.073	0.000	118.886
0.6825	39.326	-5.077	7.171	-1.070	1.170	0.218	308.982	0.000	-146.622	-19.565	64.068	13.192	-8.221	3.495	6.302	112.729	0.000	118.384
0.6850	39.593	-6.461	7.440	-1.047	1.244	0.217	244.858	0.000	-109.815	-19.520	63.726	13.105	-8.242	3.569	6.372	114.386	0.000	119.409
0.6875	39.506	-5.591	7.660	-0.892	1.207	0.218	282.177	0.000	-97.450	-19.654	63.209	13.321	-8.245	3.477	6.337	114.872	0.000	120.277
0.6900	39.722	-5.246	7.570	-1.002	1.281	0.182	309.275	0.000	-125.602	-19.653	63.380	13.147	-8.288	3.486	6.424	115.932	0.000	120.763
0.6925	39.814	-4.720	7.878	-1.023	1.310	0.375	303.662	0.000	-140.920	-19.653	62.866	13.277	-8.288	3.514	6.354	115.771	0.000	121.663
0.6950	40.209	-6.289	8.011	-1.201	1.356	0.200	258.848	0.000	-133.186	-19.350	62.870	13.714	-8.132	3.578	6.284	114.428	0.000	118.853
0.6975	40.296	-6.812	8.100	-1.268	1.355	0.094	255.019	0.000	-132.252	-19.045	61.838	13.759	-8.222	3.570	6.180	114.424	0.000	122.268
0.7000	40.605	-5.942	8.054	-1.178	1.412	0.235	271.074	0.000	-136.747	-19.526	61.839	13.799	-8.222	3.579	6.250	115.900	0.000	122.231
0.7025	40.477	-6.625	8.192	-0.999	1.458	0.357	223.828	0.000	-94.745	-19.566	62.866	13.233	-8.266	3.514	6.406	116.536	0.000	121.341
0.7050	40.433	-5.758	8.322	-0.999	1.430	0.357	257.055	0.000	-108.012	-19.653	62.695	13.276	-8.244	3.532	6.372	116.362	0.000	121.288
0.7075	41.004	-6.982	8.321	-1.133	1.458	0.216	235.931	0.000	-108.288	-18.958	61.151	13.670	-8.244	3.589	6.319	117.913	0.000	124.075
0.7100	40.739	-5.927	8.368	-0.931	1.561	0.356	252.209	0.000	-93.111	-19.520	62.178	13.013	-8.178	3.560	6.354	116.948	0.000	121.428
0.7125	41.268	-6.979	8.542	-1.110	1.523	0.234	235.267	0.000	-103.593	-19.218	62.869	13.585	-8.221	3.579	6.198	112.955	0.000	120.360
0.7150	41.091	-6.278	8.631	-1.175	1.607	0.356	240.671	0.000	-124.745	-19.569	62.527	13.802	-8.265	3.588	6.232	114.381	0.000	121.572
0.7175	41.091	-6.453	8.675	-1.131	1.588	0.286	245.052	0.000	-114.323	-19.524	61.496	13.624	-8.243	3.616	6.354	118.237	0.000	123.395
0.7200	41.140	-6.447	8.853	-1.019	1.607	0.426	223.888	0.000	-95.807	-19.742	62.866	13.496	-8.377	3.496	6.302	115.007	0.000	122.918
0.7225	41.400	-6.977	8.718	-1.220	1.598	0.286	228.684	0.000	-118.162	-19.219	61.667	13.671	-8.310	3.607	6.232	115.713	0.000	124.096
0.7250	42.060	-6.805	8.937	-1.175	1.663	0.251	244.023	0.000	-113.113	-19.397	61.839	14.020	-8.311	3.542	6.232	115.525	0.000	123.511
0.7275	41.753	-7.322	8.807	-1.241	1.681	0.338	212.973	0.000	-114.887	-19.175	62.185	13.801	-8.110	3.644	6.197	114.156	0.000	119.742
0.7300	41.709	-7.321	8.764	-1.108	1.653	0.321	215.135	0.000	-97.088	-19.523	62.181	13.452	-8.376	3.588	6.302	116.103	0.000	124.289
0.7325	42.058	-7.155	8.672	-1.307	1.681	0.303	224.775	0.000	-127.762	-19.174	62.009	13.541	-8.288	3.579	6.215	114.766	0.000	123.153
0.7350	42.061	-6.800	9.203	-1.262	1.747	0.338	231.371	0.000	-124.206	-19.394	61.669	13.799	-8.177	3.635	6.232	115.835	0.000	121.837
0.7375	42.019	-6.095	9.206	-0.928	1.803	0.461	237.708	0.000	-83.752	-19.478	64.070	13.323	-8.154	3.541	6.302	112.658	0.000	117.234
0.7400	42.063	-6.274	8.940	-0.907	1.719	0.461	231.208	0.000	-79.933	-19.478	63.555	13.322	-8.176	3.560	6.319	113.841	0.000	118.539
0.7425	42.237	-8.016	8.764	-1.173	1.756	0.338	197.380	0.000	-96.813	-19.481	62.185	13.756	-8.132	3.625	6.284	115.780	0.000	120.136
0.7450	42.585	-6.287	9.156	-1.263	1.765	0.198	276.304	0.000	-134.820	-19.218	62.354	13.585	-8.309	3.607	6.284	115.276	0.000	122.771
0.7475	42.322	-6.459	8.802	-1.328	1.738	0.391	237.216	0.000	-143.806	-19.701	62.526	13.799	-8.200	3.532	6.284	115.317	0.000	120.533
